{
  "asset": {
    "version": "2.0"
  },
  "scene": 0,
  "scenes": [
    {
      "nodes": [
        0
      ]
    }
  ],
  "nodes": [
    {
      "mesh": 0,
      "name": "Indy"
    }
  ],
  "meshes": [
    {
      "primitives": [
        {
          "attributes": {
            "POSITION": 0
          },
          "indices": 1,
          "mode": 3
        }
      ]
    }
  ],
  "accessors": [
    {
      "bufferView": 0,
      "componentType": 5126,
      "count": 66,
      "type": "VEC3",
      "max": [
        328.5882352941176,
        0.0,
        194.90196078431373
      ],
      "min": [
        -371.1372549019608,
        0.0,
        -137.52941176470588
      ]
    },
    {
      "bufferView": 1,
      "componentType": 5123,
      "count": 66,
      "type": "SCALAR"
    }
  ],
  "bufferViews": [
    {
      "buffer": 0,
      "byteOffset": 0,
      "byteLength": 792
    },
    {
      "buffer": 0,
      "byteOffset": 792,
      "byteLength": 132
    }
  ],
  "buffers": [
    {
      "byteLength": 924,
      "uri": "Indy.bin"
    }
  ]
}