{
  "asset": {
    "version": "2.0"
  },
  "scene": 0,
  "scenes": [
    {
      "nodes": [
        0
      ]
    }
  ],
  "nodes": [
    {
      "mesh": 0,
      "name": "COTA"
    }
  ],
  "meshes": [
    {
      "primitives": [
        {
          "attributes": {
            "POSITION": 0
          },
          "indices": 1,
          "mode": 3
        }
      ]
    }
  ],
  "accessors": [
    {
      "bufferView": 0,
      "componentType": 5126,
      "count": 59,
      "type": "VEC3",
      "max": [
        235.87878787878785,
        0.0,
        32.242424242424214
      ],
      "min": [
        -238.84848484848484,
        0.0,
        -242.66666666666669
      ]
    },
    {
      "bufferView": 1,
      "componentType": 5123,
      "count": 59,
      "type": "SCALAR"
    }
  ],
  "bufferViews": [
    {
      "buffer": 0,
      "byteOffset": 0,
      "byteLength": 708
    },
    {
      "buffer": 0,
      "byteOffset": 708,
      "byteLength": 118
    }
  ],
  "buffers": [
    {
      "byteLength": 826,
      "uri": "COTA.bin"
    }
  ]
}